<mxfile host="65bd71144e">
    <diagram id="hkCL-7lEWh5SE8HkKIB2" name="ページ1">
        <mxGraphModel dx="1066" dy="539" grid="1" gridSize="10" guides="1" tooltips="1" connect="1" arrows="1" fold="1" page="1" pageScale="1" pageWidth="827" pageHeight="1169" math="0" shadow="0">
            <root>
                <mxCell id="0"/>
                <mxCell id="1" parent="0"/>
                <mxCell id="2" value="" style="rounded=0;whiteSpace=wrap;html=1;" parent="1" vertex="1">
                    <mxGeometry x="170" y="80" width="330" height="360" as="geometry"/>
                </mxCell>
                <mxCell id="5" value="main-vnet&lt;br&gt;172.16.0.0/20" style="text;html=1;strokeColor=none;fillColor=none;align=center;verticalAlign=middle;whiteSpace=wrap;rounded=0;dashed=1;dashPattern=8 8;" parent="1" vertex="1">
                    <mxGeometry x="400" y="440" width="90" height="30" as="geometry"/>
                </mxCell>
                <mxCell id="6" value="main-subnet&lt;br&gt;172.16.0.0/24" style="text;html=1;strokeColor=none;fillColor=none;align=center;verticalAlign=middle;whiteSpace=wrap;rounded=0;dashed=1;dashPattern=8 8;" parent="1" vertex="1">
                    <mxGeometry x="380" y="400" width="90" height="30" as="geometry"/>
                </mxCell>
                <mxCell id="14" value="" style="aspect=fixed;html=1;points=[];align=center;image;fontSize=12;image=img/lib/azure2/networking/Virtual_Networks.svg;dashed=1;dashPattern=8 8;" parent="1" vertex="1">
                    <mxGeometry x="366.5" y="445" width="33.5" height="20" as="geometry"/>
                </mxCell>
                <mxCell id="3" value="" style="rounded=0;whiteSpace=wrap;html=1;dashed=1;dashPattern=8 8;container=0;" parent="1" vertex="1">
                    <mxGeometry x="200" y="100" width="270" height="300" as="geometry"/>
                </mxCell>
                <mxCell id="4" value="" style="aspect=fixed;html=1;points=[];align=center;image;fontSize=12;image=img/lib/azure2/compute/Virtual_Machine.svg;dashed=1;dashPattern=8 8;container=0;" parent="1" vertex="1">
                    <mxGeometry x="253.43000000000004" y="190" width="43.13" height="40" as="geometry"/>
                </mxCell>
                <mxCell id="7" value="win-master" style="text;html=1;strokeColor=none;fillColor=none;align=center;verticalAlign=middle;whiteSpace=wrap;rounded=0;dashed=1;dashPattern=8 8;container=0;" parent="1" vertex="1">
                    <mxGeometry x="240" y="230" width="70" height="20" as="geometry"/>
                </mxCell>
                <mxCell id="8" value="" style="aspect=fixed;html=1;points=[];align=center;image;fontSize=12;image=img/lib/azure2/compute/Virtual_Machine.svg;dashed=1;dashPattern=8 8;container=0;" parent="1" vertex="1">
                    <mxGeometry x="377.65" y="190" width="43.13" height="40" as="geometry"/>
                </mxCell>
                <mxCell id="9" value="lnx-01" style="text;html=1;strokeColor=none;fillColor=none;align=center;verticalAlign=middle;whiteSpace=wrap;rounded=0;dashed=1;dashPattern=8 8;container=0;" parent="1" vertex="1">
                    <mxGeometry x="369.22" y="230" width="60" height="20" as="geometry"/>
                </mxCell>
                <mxCell id="10" value="lnx-NN" style="text;html=1;strokeColor=none;fillColor=none;align=center;verticalAlign=middle;whiteSpace=wrap;rounded=0;dashed=1;dashPattern=8 8;container=0;" parent="1" vertex="1">
                    <mxGeometry x="369.22" y="310" width="60" height="20" as="geometry"/>
                </mxCell>
                <mxCell id="11" value="" style="aspect=fixed;html=1;points=[];align=center;image;fontSize=12;image=img/lib/azure2/compute/Virtual_Machine.svg;dashed=1;dashPattern=8 8;container=0;" parent="1" vertex="1">
                    <mxGeometry x="377.65" y="270" width="43.13" height="40" as="geometry"/>
                </mxCell>
                <mxCell id="12" value="・・・" style="text;html=1;strokeColor=none;fillColor=none;align=center;verticalAlign=middle;whiteSpace=wrap;rounded=0;dashed=1;dashPattern=8 8;direction=east;rotation=90;container=0;" parent="1" vertex="1">
                    <mxGeometry x="374.22" y="350" width="50" height="30" as="geometry"/>
                </mxCell>
                <mxCell id="15" value="" style="aspect=fixed;html=1;points=[];align=center;image;fontSize=12;image=img/lib/azure2/networking/Network_Security_Groups.svg;dashed=1;dashPattern=8 8;container=0;" parent="1" vertex="1">
                    <mxGeometry x="432.65" y="110" width="24.71" height="30" as="geometry"/>
                </mxCell>
                <mxCell id="20" value="main-vnet-main-nsg" style="text;html=1;strokeColor=none;fillColor=none;align=center;verticalAlign=middle;rounded=0;dashed=1;dashPattern=8 8;container=0;" parent="1" vertex="1">
                    <mxGeometry x="410" y="140" width="70" height="20" as="geometry"/>
                </mxCell>
            </root>
        </mxGraphModel>
    </diagram>
</mxfile>